<svg width="14" height="14" viewBox="0 0 14 14" fill="none" xmlns="http://www.w3.org/2000/svg">
<path d="M9.49805 5.66016C9.76987 5.66016 9.99023 5.4398 9.99023 5.16797C9.99023 4.89614 9.76987 4.67578 9.49805 4.67578C9.22622 4.67578 9.00586 4.89614 9.00586 5.16797C9.00586 5.4398 9.22622 5.66016 9.49805 5.66016Z" fill="#90C63E"/>
<path d="M10.6312 0.984375H9.99141V0.492187C9.99141 0.220352 9.77105 0 9.49922 0C9.22738 0 9.00703 0.220352 9.00703 0.492187V0.984375H6.76758V0.492187C6.76758 0.220352 6.54722 0 6.27539 0C6.00355 0 5.7832 0.220352 5.7832 0.492187V0.984375H3.56836V0.492187C3.56836 0.220352 3.34801 0 3.07617 0C2.80434 0 2.58398 0.220352 2.58398 0.492187V0.984375H1.96875C0.883181 0.984375 0 1.86756 0 2.95312V10.6312C0 11.7168 0.883181 12.6 1.96875 12.6H5.73398C6.00582 12.6 6.22617 12.3796 6.22617 12.1078C6.22617 11.836 6.00582 11.6156 5.73398 11.6156H1.96875C1.42597 11.6156 0.984375 11.174 0.984375 10.6312V2.95312C0.984375 2.41034 1.42597 1.96875 1.96875 1.96875H2.58398V2.46094C2.58398 2.73277 2.80434 2.95312 3.07617 2.95312C3.34801 2.95312 3.56836 2.73277 3.56836 2.46094V1.96875H5.7832V2.46094C5.7832 2.73277 6.00355 2.95312 6.27539 2.95312C6.54722 2.95312 6.76758 2.73277 6.76758 2.46094V1.96875H9.00703V2.46094C9.00703 2.73277 9.22738 2.95312 9.49922 2.95312C9.77105 2.95312 9.99141 2.73277 9.99141 2.46094V1.96875H10.6312C11.174 1.96875 11.6156 2.41034 11.6156 2.95312V5.75859C11.6156 6.03043 11.836 6.25078 12.1078 6.25078C12.3796 6.25078 12.6 6.03043 12.6 5.75859V2.95312C12.6 1.86756 11.7168 0.984375 10.6312 0.984375Z" fill="#90C63E"/>
<path d="M9.62226 6.64453C7.98033 6.64453 6.64453 7.98033 6.64453 9.62226C6.64453 11.2642 7.98033 12.6 9.62226 12.6C11.2642 12.6 12.6 11.2642 12.6 9.62226C12.6 7.98033 11.2642 6.64453 9.62226 6.64453ZM9.62226 11.6156C8.52314 11.6156 7.62891 10.7214 7.62891 9.62226C7.62891 8.52311 8.52314 7.62891 9.62226 7.62891C10.7214 7.62891 11.6156 8.52311 11.6156 9.62226C11.6156 10.7214 10.7214 11.6156 9.62226 11.6156Z" fill="#90C63E"/>
<path d="M10.3367 9.13008H10.1152V8.61328C10.1152 8.34145 9.89488 8.12109 9.62305 8.12109C9.35121 8.12109 9.13086 8.34145 9.13086 8.61328V9.62227C9.13086 9.8941 9.35121 10.1145 9.62305 10.1145H10.3367C10.6086 10.1145 10.8289 9.8941 10.8289 9.62227C10.8289 9.35043 10.6086 9.13008 10.3367 9.13008Z" fill="#90C63E"/>
<path d="M7.35742 5.66016C7.62925 5.66016 7.84961 5.4398 7.84961 5.16797C7.84961 4.89614 7.62925 4.67578 7.35742 4.67578C7.08559 4.67578 6.86523 4.89614 6.86523 5.16797C6.86523 5.4398 7.08559 5.66016 7.35742 5.66016Z" fill="#90C63E"/>
<path d="M5.2168 7.80078C5.48862 7.80078 5.70898 7.58042 5.70898 7.30859C5.70898 7.03677 5.48862 6.81641 5.2168 6.81641C4.94497 6.81641 4.72461 7.03677 4.72461 7.30859C4.72461 7.58042 4.94497 7.80078 5.2168 7.80078Z" fill="#90C63E"/>
<path d="M3.07617 5.66016C3.348 5.66016 3.56836 5.4398 3.56836 5.16797C3.56836 4.89614 3.348 4.67578 3.07617 4.67578C2.80434 4.67578 2.58398 4.89614 2.58398 5.16797C2.58398 5.4398 2.80434 5.66016 3.07617 5.66016Z" fill="#90C63E"/>
<path d="M3.07617 7.80078C3.348 7.80078 3.56836 7.58042 3.56836 7.30859C3.56836 7.03677 3.348 6.81641 3.07617 6.81641C2.80434 6.81641 2.58398 7.03677 2.58398 7.30859C2.58398 7.58042 2.80434 7.80078 3.07617 7.80078Z" fill="#90C63E"/>
<path d="M3.07617 9.94141C3.348 9.94141 3.56836 9.72105 3.56836 9.44922C3.56836 9.17739 3.348 8.95703 3.07617 8.95703C2.80434 8.95703 2.58398 9.17739 2.58398 9.44922C2.58398 9.72105 2.80434 9.94141 3.07617 9.94141Z" fill="#90C63E"/>
<path d="M5.2168 9.94141C5.48862 9.94141 5.70898 9.72105 5.70898 9.44922C5.70898 9.17739 5.48862 8.95703 5.2168 8.95703C4.94497 8.95703 4.72461 9.17739 4.72461 9.44922C4.72461 9.72105 4.94497 9.94141 5.2168 9.94141Z" fill="#90C63E"/>
<path d="M5.2168 5.66016C5.48862 5.66016 5.70898 5.4398 5.70898 5.16797C5.70898 4.89614 5.48862 4.67578 5.2168 4.67578C4.94497 4.67578 4.72461 4.89614 4.72461 5.16797C4.72461 5.4398 4.94497 5.66016 5.2168 5.66016Z" fill="#90C63E"/>
</svg>
