<svg width="14" height="14" viewBox="0 0 14 14" fill="none" xmlns="http://www.w3.org/2000/svg">
<path d="M6.99935 2.33268C4.42202 2.33268 2.33268 4.42202 2.33268 6.99935C2.33268 9.57668 4.42202 11.666 6.99935 11.666C9.57668 11.666 11.666 9.57668 11.666 6.99935C11.666 4.42202 9.57668 2.33268 6.99935 2.33268ZM1.16602 6.99935C1.16602 3.77769 3.77769 1.16602 6.99935 1.16602C10.221 1.16602 12.8327 3.77769 12.8327 6.99935C12.8327 10.221 10.221 12.8327 6.99935 12.8327C3.77769 12.8327 1.16602 10.221 1.16602 6.99935ZM6.99935 3.49935C7.32152 3.49935 7.58268 3.76052 7.58268 4.08268V6.75772L9.16183 8.33687C9.38963 8.56468 9.38963 8.93402 9.16183 9.16183C8.93402 9.38963 8.56468 9.38963 8.33687 9.16183L6.58687 7.41183C6.47747 7.30243 6.41602 7.15406 6.41602 6.99935V4.08268C6.41602 3.76052 6.67718 3.49935 6.99935 3.49935Z" fill="#90C63E"/>
</svg>
