<svg width="12" height="12" viewBox="0 0 12 12" fill="none" xmlns="http://www.w3.org/2000/svg">
<path d="M5.99935 1.33268C3.42202 1.33268 1.33268 3.42202 1.33268 5.99935C1.33268 8.57668 3.42202 10.666 5.99935 10.666C8.57668 10.666 10.666 8.57668 10.666 5.99935C10.666 3.42202 8.57668 1.33268 5.99935 1.33268ZM0.166016 5.99935C0.166016 2.77769 2.77769 0.166016 5.99935 0.166016C9.22101 0.166016 11.8327 2.77769 11.8327 5.99935C11.8327 9.22101 9.22101 11.8327 5.99935 11.8327C2.77769 11.8327 0.166016 9.22101 0.166016 5.99935ZM5.99935 2.49935C6.32152 2.49935 6.58268 2.76052 6.58268 3.08268V5.75772L8.16183 7.33687C8.38963 7.56468 8.38963 7.93402 8.16183 8.16183C7.93402 8.38963 7.56468 8.38963 7.33687 8.16183L5.58687 6.41183C5.47747 6.30243 5.41602 6.15406 5.41602 5.99935V3.08268C5.41602 2.76052 5.67718 2.49935 5.99935 2.49935Z" fill="#90C63E"/>
</svg>
