<svg width="143" height="64" viewBox="0 0 143 64" fill="none" xmlns="http://www.w3.org/2000/svg">
<path d="M38.7308 62.8072C42.4255 62.2945 44.4719 59.8829 44.2811 56.3169C44.1594 54.0509 42.873 52.7475 40.8069 52.0429C41.4649 51.5368 42.1591 51.1597 42.6657 50.6139C43.0988 50.1426 43.4351 49.59 43.6557 48.9878C43.8762 48.3856 43.9765 47.7456 43.9508 47.1044C43.9251 46.4633 43.7741 45.8334 43.5061 45.251C43.2382 44.6686 42.8587 44.145 42.3893 43.7101C41.8919 43.2458 41.302 42.8929 40.6588 42.6747C37.9084 41.6823 35.0297 41.9701 32.1871 41.9569C28.1239 41.9337 28.1239 41.9569 28.1239 46.039C28.1239 51.2193 28.0845 56.4029 28.1503 61.5865C28.1503 62.784 27.8805 63.0156 26.6961 62.87C14.102 61.3086 3.13649 50.733 0.583465 37.6036C-2.56505 21.3945 7.32136 5.4069 23.1857 1.15944C33.1379 -1.48695 42.2676 0.434986 50.5453 6.53492C51.5059 7.24284 51.506 7.66956 50.7492 8.55611C48.2126 11.5333 45.7517 14.5535 43.3138 17.6034C42.6986 18.3775 42.2643 18.4768 41.4945 17.8152C40.2179 16.7136 38.8624 15.7179 37.3129 14.5072C36.3259 21.8873 35.3849 29.0061 34.4112 36.34L54.5722 28.0005C53.0522 26.8063 51.6967 25.7511 50.3544 24.6925C49.9563 24.3617 49.3675 24.1698 49.9892 23.4421C52.5258 20.4152 55.0098 17.3454 57.5562 14.2194C60.5371 18.6585 62.2975 23.8111 62.659 29.1549C63.192 36.4689 62.7346 43.7962 62.9518 51.5203C62.4517 50.7297 62.1589 50.2401 61.8398 49.7737C59.7243 46.6642 56.6153 46.1349 53.2431 46.6344C50.2821 47.0611 48.2291 48.7978 47.4165 51.7452C46.5249 54.9739 46.7157 58.0933 48.9167 60.8092C49.7162 61.8016 50.6769 62.6318 52.006 62.8568C52.1639 63.4555 51.677 63.2967 51.4302 63.3C47.4033 63.3133 43.3752 63.3133 39.3461 63.3C39.0731 63.2636 38.6519 63.3596 38.7308 62.8072Z" fill="#90C63E"/>
<path d="M105.996 49.2816C105.996 47.191 106.029 45.0971 105.98 42.9965C105.954 42.0405 106.198 41.6534 107.25 41.627C111.675 41.5079 111.672 41.4715 111.675 45.8976C111.675 48.8748 111.633 51.852 111.711 54.8292C111.777 57.3565 113.139 58.5011 115.489 58.2464C116.87 58.0975 117.653 57.3631 117.995 56.03C118.404 54.4554 118.226 52.8543 118.242 51.2632C118.275 48.5109 118.281 45.7554 118.242 42.9932C118.242 42.0504 118.42 41.6468 119.489 41.6237C123.89 41.5278 123.888 41.4881 123.888 45.924C123.888 48.5705 123.826 51.2169 123.888 53.8632C124.095 60.8564 119.456 63.6582 113.36 62.9999C108.448 62.4706 106.121 59.7449 106.007 54.73C105.963 52.9139 106.007 51.0911 106.007 49.2784L105.996 49.2816Z" fill="#90C63E"/>
<path d="M90.5822 53.819C92.3391 51.5696 93.9051 49.6113 95.4084 47.6034C95.6163 47.2856 95.906 47.0309 96.2465 46.867C96.588 46.7032 96.9671 46.6363 97.3433 46.6738C98.9095 46.7366 100.475 46.6738 102.416 46.6738C100.699 48.8008 99.2642 50.7128 97.6726 52.4826C96.8429 53.4055 96.9125 54.0473 97.5635 55.01C99.3037 57.5869 100.936 60.2399 102.768 63.108C100.63 63.108 98.7412 63.0881 96.8467 63.108C96.2804 63.108 96.1092 62.7473 95.8853 62.3736C95.0924 61.0503 94.3097 59.7271 93.4873 58.4403C93.2471 58.0599 93.1023 57.2925 92.5825 57.481C91.9245 57.7258 91.1711 58.1062 90.9572 58.9399C90.9321 59.2115 90.9266 59.4846 90.9408 59.7569C90.8388 60.8353 91.385 62.6481 90.7171 62.8533C89.1643 63.3296 87.3844 63.0781 85.6932 63.0616C85.1143 63.0616 85.2952 62.5059 85.2919 62.1651C85.2919 55.2846 85.2831 48.4028 85.2656 41.52C85.2656 40.6566 85.611 40.5275 86.3316 40.5574C87.8022 40.6202 89.7137 40.0678 90.6085 40.7988C91.5725 41.5696 90.8948 43.5776 90.9079 45.0397C90.9572 47.8647 91.0855 50.6764 90.5822 53.819Z" fill="black"/>
<path d="M127.435 56.7975C129.176 57.4095 130.673 58.0943 132.314 58.2829C132.584 58.3126 132.851 58.4085 133.121 58.4118C134.368 58.435 135.901 58.7162 136.289 57.1217C136.657 55.6199 135.118 55.3586 134.157 54.8293C132.914 54.1445 131.587 53.5987 130.374 52.8445C128.11 51.475 127.278 49.3314 127.567 46.7809C127.857 44.2305 129.436 42.6361 131.844 41.8984C135.022 40.9291 138.118 41.3591 141.158 42.5269C141.26 42.5666 141.415 42.5698 141.458 42.6427C142.316 44.0915 140.891 45.0741 140.697 46.3145C140.576 47.082 140.171 47.2573 139.411 46.9166C138.123 46.2981 136.719 45.9599 135.292 45.9242C134.381 45.9242 133.43 46.0796 133.197 47.1217C132.989 48.0446 133.805 48.4448 134.483 48.8153C135.842 49.5266 137.233 50.1717 138.599 50.8697C141.185 52.1928 142.336 54.3331 141.974 57.2375C141.645 59.9368 140 61.5974 137.532 62.4343C134.46 63.4764 131.39 63.2383 128.366 62.1334C127.893 61.9613 127.426 61.8025 127.426 61.1409C127.435 59.7747 127.435 58.3656 127.435 56.7975Z" fill="#90C63E"/>
<path d="M82.0924 54.8712C82.1154 60.164 79.0853 63.3859 74.0187 63.4157C69.0278 63.4489 65.8728 60.1838 65.8267 54.944C65.7806 49.6081 68.7877 46.449 73.8839 46.4259C78.9044 46.4027 82.0594 49.6644 82.0924 54.8712Z" fill="black"/>
<path d="M57.4884 54.9969C57.4489 56.0159 57.4884 56.9586 57.0837 57.8385C56.7119 58.6523 56.1395 59.1617 55.1919 59.1617C54.1852 59.1617 53.4746 58.7152 53.1686 57.7955C52.5637 55.9542 52.543 53.9694 53.1093 52.1157C53.2146 51.6808 53.4652 51.2954 53.8191 51.0239C54.1729 50.7523 54.6087 50.6111 55.0538 50.6238C56.0835 50.6006 56.7843 51.1233 57.1527 52.1389C57.5212 53.1544 57.4423 54.0972 57.4884 54.9969Z" fill="#91C63E"/>
<path d="M33.7488 56.4233C33.8837 55.4078 33.2125 54.068 35.1766 54.1805C37.45 54.3161 38.4304 54.8983 38.4074 56.5226C38.3843 58.0938 37.4862 58.6132 35.2621 58.772C33.0381 58.9307 33.9791 57.3297 33.7488 56.4233Z" fill="#93C742"/>
<path d="M33.7757 48.0678C33.7133 47.0523 33.5422 46.083 35.1674 46.2153C37.1414 46.3641 38.0626 46.8769 38.033 48.1472C38.0034 49.4175 37.0263 50.0096 35.1444 50.132C33.3382 50.2544 33.8218 49.0171 33.7757 48.0678Z" fill="#93C742"/>
<path d="M58.232 62.8134C60.5087 62.3602 61.6832 60.6235 62.9926 58.8438V62.9986C61.3903 63.5378 59.7685 63.3029 58.1465 63.1309C58.1695 63.0237 58.198 62.9176 58.232 62.8134Z" fill="#97CA4A"/>
<path d="M38.7302 62.8066C38.8058 62.8827 38.8782 63.0216 38.9571 63.025C43.2341 63.2102 47.5111 63.1871 51.7881 63.025C51.8637 63.025 51.9362 62.8827 52.0085 62.8066L53.7851 63.101C53.8948 63.1738 53.9309 63.2466 53.8937 63.3194C53.8575 63.3921 53.8213 63.4252 53.7851 63.4252H30.1367C32.9989 63.0448 35.881 63.2499 38.7302 62.8066Z" fill="#F0F7E5"/>
<path d="M53.7949 63.4385V63.1077C55.2688 63.0183 56.7559 63.336 58.2166 62.8066C59.7827 63.4881 61.385 63.1374 62.9806 62.9786C62.6219 63.7098 61.9475 63.4219 61.4014 63.4285C58.8648 63.4616 56.3282 63.4418 53.7949 63.4385Z" fill="#F7FBF2"/>
<path d="M71.5656 54.8673C71.48 53.8539 71.6308 52.8344 72.0064 51.8901C72.1556 51.502 72.4224 51.171 72.7689 50.9436C73.1155 50.7162 73.5243 50.6041 73.9376 50.6232C74.8194 50.6232 75.553 50.9969 75.8656 51.8736C76.5825 53.8458 76.5731 56.0109 75.8392 57.9768C75.5103 58.8468 74.8095 59.1809 73.8949 59.1644C73.4806 59.1744 73.0741 59.0515 72.734 58.8137C72.3938 58.5757 72.1379 58.2352 72.0032 57.8412C71.6274 56.8982 71.4774 55.8793 71.5656 54.8673Z" fill="#FDFDFD"/>
</svg>
