<svg width="16" height="16" viewBox="0 0 16 16" fill="none" xmlns="http://www.w3.org/2000/svg">
<path d="M7.93034 9.8125C7.67187 9.8125 7.46159 9.60222 7.46159 9.34375C7.46159 9.15494 7.57393 8.98537 7.7478 8.91172C7.95771 8.82284 8.2089 8.89869 8.43715 9.11981C8.62308 9.29994 8.91983 9.29525 9.09996 9.10934C9.28011 8.92341 9.27539 8.62666 9.08949 8.44653C8.87786 8.2415 8.64262 8.09659 8.39908 8.01481V7.46875C8.39908 7.20987 8.18921 7 7.93034 7C7.67146 7 7.46159 7.20987 7.46159 7.46875V8.01784C7.43499 8.02731 7.40849 8.03731 7.38221 8.04844C6.86093 8.26922 6.52409 8.77766 6.52409 9.34375C6.52409 10.1192 7.15493 10.75 7.93034 10.75C8.1888 10.75 8.39908 10.9603 8.39908 11.2188C8.39908 11.4152 8.27518 11.5923 8.09077 11.6595C7.84999 11.7471 7.56971 11.6282 7.32184 11.3331C7.15534 11.1348 6.85968 11.1091 6.66143 11.2756C6.46318 11.4421 6.43746 11.7378 6.60396 11.936C6.85737 12.2377 7.15234 12.4446 7.46162 12.5487V13.0938C7.46162 13.3526 7.67149 13.5625 7.93037 13.5625C8.18924 13.5625 8.39912 13.3526 8.39912 13.0938V12.5446C8.4033 12.5431 8.40749 12.5418 8.41165 12.5403C8.96486 12.3388 9.33658 11.8077 9.33658 11.2188C9.33658 10.4433 8.70574 9.8125 7.93034 9.8125Z" fill="#90C63E"/>
<path d="M11.6759 7.25719C11.1807 6.64794 10.6146 6.16256 9.99314 5.8135C10.0949 5.69308 10.1752 5.55189 10.2271 5.39453C10.4306 4.77483 10.1333 4.03872 9.37464 3.79892L10.4382 1.94433C10.5724 1.71028 10.4519 1.41217 10.1931 1.33694C9.42411 1.11336 8.62472 1 7.81706 1C7.00939 1 6.21 1.11336 5.441 1.33694C5.18195 1.41225 5.06186 1.71056 5.19589 1.94433L6.25947 3.79894C5.50378 4.03753 5.20278 4.77256 5.40714 5.39486C5.45883 5.55181 5.53911 5.69292 5.6412 5.81339C5.01967 6.16244 4.4535 6.64789 3.95822 7.25719C2.9682 8.47517 2.40039 10.0115 2.40039 11.4722C2.40039 14.5025 4.81836 15.2222 7.81706 15.2222C10.8179 15.2222 13.2337 14.5013 13.2337 11.4722C13.2337 10.0115 12.6659 8.47517 11.6759 7.25719ZM6.19195 2.00606C6.72353 1.89131 7.26811 1.83333 7.81706 1.83333C8.366 1.83333 8.91058 1.89131 9.44217 2.00606L8.52458 3.60611C8.05461 3.5405 7.57964 3.54053 7.10956 3.60614L6.19195 2.00606ZM6.46417 4.60822C7.18125 4.373 7.93147 4.32842 8.66083 4.47422C8.6617 4.47439 8.66258 4.47456 8.66345 4.47472C8.83345 4.50883 9.00231 4.55322 9.16936 4.60803C9.38772 4.68 9.50706 4.91619 9.43547 5.13417C9.38345 5.29203 9.24608 5.40075 9.0845 5.41836C8.66906 5.28828 8.24531 5.22222 7.81706 5.22222C7.38967 5.22222 6.96675 5.288 6.55211 5.41756C6.38803 5.40067 6.25033 5.29117 6.19875 5.13456C6.12706 4.91619 6.24639 4.67997 6.46417 4.60822ZM7.81706 14.3944C4.56161 14.3944 3.23372 13.5439 3.23372 11.4722C3.23372 10.2183 3.74631 8.83908 4.60483 7.78283C5.51025 6.66897 6.65103 6.05556 7.81706 6.05556C9.10056 6.05556 10.2232 6.79117 11.0293 7.78283C11.8878 8.83908 12.4004 10.2183 12.4004 11.4722C12.4004 13.5439 11.0725 14.3944 7.81706 14.3944Z" fill="#90C63E"/>
</svg>
