<svg width="12" height="15" viewBox="0 0 12 15" fill="none" xmlns="http://www.w3.org/2000/svg">
<path d="M5.93034 8.8125C5.67187 8.8125 5.46159 8.60222 5.46159 8.34375C5.46159 8.15494 5.57393 7.98537 5.7478 7.91172C5.95771 7.82284 6.2089 7.89869 6.43715 8.11981C6.62308 8.29994 6.91983 8.29525 7.09996 8.10934C7.28011 7.92341 7.27539 7.62666 7.08949 7.44653C6.87786 7.2415 6.64262 7.09659 6.39908 7.01481V6.46875C6.39908 6.20987 6.18921 6 5.93034 6C5.67146 6 5.46159 6.20987 5.46159 6.46875V7.01784C5.43499 7.02731 5.40849 7.03731 5.38221 7.04844C4.86093 7.26922 4.52409 7.77766 4.52409 8.34375C4.52409 9.11916 5.15493 9.75 5.93034 9.75C6.1888 9.75 6.39908 9.96028 6.39908 10.2188C6.39908 10.4152 6.27518 10.5923 6.09077 10.6595C5.84999 10.7471 5.56971 10.6282 5.32184 10.3331C5.15534 10.1348 4.85968 10.1091 4.66143 10.2756C4.46318 10.4421 4.43746 10.7378 4.60396 10.936C4.85737 11.2377 5.15234 11.4446 5.46162 11.5487V12.0938C5.46162 12.3526 5.67149 12.5625 5.93037 12.5625C6.18924 12.5625 6.39912 12.3526 6.39912 12.0938V11.5446C6.4033 11.5431 6.40749 11.5418 6.41165 11.5403C6.96486 11.3388 7.33658 10.8077 7.33658 10.2188C7.33658 9.44334 6.70574 8.8125 5.93034 8.8125Z" fill="#90C63E"/>
<path d="M9.67592 6.25719C9.1807 5.64794 8.61458 5.16256 7.99314 4.8135C8.09492 4.69308 8.17522 4.55189 8.22708 4.39453C8.43058 3.77483 8.13333 3.03872 7.37464 2.79892L8.43822 0.944333C8.57242 0.710278 8.45186 0.412167 8.19311 0.336944C7.42411 0.113361 6.62472 0 5.81706 0C5.00939 0 4.21 0.113361 3.441 0.336944C3.18195 0.41225 3.06186 0.710555 3.19589 0.944333L4.25947 2.79894C3.50378 3.03753 3.20278 3.77256 3.40714 4.39486C3.45883 4.55181 3.53911 4.69292 3.6412 4.81339C3.01967 5.16244 2.4535 5.64789 1.95822 6.25719C0.968196 7.47517 0.400391 9.01147 0.400391 10.4722C0.400391 13.5025 2.81836 14.2222 5.81706 14.2222C8.81786 14.2222 11.2337 13.5013 11.2337 10.4722C11.2337 9.01147 10.6659 7.47517 9.67592 6.25719ZM4.19195 1.00606C4.72353 0.891306 5.26811 0.833333 5.81706 0.833333C6.366 0.833333 6.91058 0.891306 7.44217 1.00606L6.52458 2.60611C6.05461 2.5405 5.57964 2.54053 5.10956 2.60614L4.19195 1.00606ZM4.46417 3.60822C5.18125 3.373 5.93147 3.32842 6.66083 3.47422C6.6617 3.47439 6.66258 3.47456 6.66345 3.47472C6.83345 3.50883 7.00231 3.55322 7.16936 3.60803C7.38772 3.68 7.50706 3.91619 7.43547 4.13417C7.38345 4.29203 7.24608 4.40075 7.0845 4.41836C6.66906 4.28828 6.24531 4.22222 5.81706 4.22222C5.38967 4.22222 4.96675 4.288 4.55211 4.41756C4.38803 4.40067 4.25033 4.29117 4.19875 4.13456C4.12706 3.91619 4.24639 3.67997 4.46417 3.60822ZM5.81706 13.3944C2.56161 13.3944 1.23372 12.5439 1.23372 10.4722C1.23372 9.21828 1.74631 7.83908 2.60483 6.78283C3.51025 5.66897 4.65103 5.05556 5.81706 5.05556C7.10056 5.05556 8.2232 5.79117 9.02928 6.78283C9.88781 7.83908 10.4004 9.21828 10.4004 10.4722C10.4004 12.5439 9.0725 13.3944 5.81706 13.3944Z" fill="#90C63E"/>
</svg>
